# xmcd
#
# Track frame offsets:
#	150
#	16561
#	32641
#	45078
#	58873
#	67091
#	87025
#	106629
#	128010
#
# Disc length: 2006 seconds
#
# Revision: 1
# Processed by: cddbd v1.5.2PL0 Copyright (c) Steve Scherf et al.
# Submitted via: audiograbber 1.83.01
#
DISCID=5f07d409
DTITLE=JonesTM - HC200750
DYEAR=2007
DGENRE=Country
TTITLE0=Song Trust - Bring Him Home Santa!
TTITLE1=Carrie Underwood - All-American Girl
TTITLE2=Garth Brooks and Huey Lewis - Workin' For A Livin'
TTITLE3=Miranda Lambert - Gunpowder and Lead [Radio Edit]
TTITLE4=NLT - Silent Night
TTITLE5=Marvin Winans - Just Don't Wanna Know
TTITLE6=Keyshia Cole - I Remember [Album Version]
TTITLE7=Chaka Khan - One For All Time [Album Version]
TTITLE8=Euge Groove - Mr. Groove [Album Version]
EXTD=
EXTT0=
EXTT1=
EXTT2=
EXTT3=
EXTT4=
EXTT5=
EXTT6=
EXTT7=
EXTT8=
PLAYORDER=
